<mxfile host="app.diagrams.net" modified="2024-06-06T12:52:18.619Z" agent="Mozilla/5.0 (X11; Linux x86_64) AppleWebKit/537.36 (KHTML, like Gecko) Chrome/121.0.0.0 Safari/537.36" etag="LzVfelANOtS-OK3EzTxc" version="24.4.15" type="device">
  <diagram name="Página-1" id="dSBwMPbhJosDGVAZDlqS">
    <mxGraphModel dx="2195" dy="1090" grid="0" gridSize="10" guides="1" tooltips="1" connect="1" arrows="1" fold="1" page="0" pageScale="1" pageWidth="827" pageHeight="1169" math="0" shadow="0">
      <root>
        <mxCell id="0" />
        <mxCell id="1" parent="0" />
        <mxCell id="UcPUY5OMpeZfR1J5Bzxe-2" value="&lt;b&gt;Complejos deportivos&lt;/b&gt;" style="rounded=0;whiteSpace=wrap;html=1;" vertex="1" parent="1">
          <mxGeometry x="-36" y="84" width="160" height="80" as="geometry" />
        </mxCell>
        <mxCell id="UcPUY5OMpeZfR1J5Bzxe-3" value="&lt;b&gt;Deporte&lt;/b&gt;" style="ellipse;whiteSpace=wrap;html=1;" vertex="1" parent="1">
          <mxGeometry x="-144" y="-55" width="106" height="58" as="geometry" />
        </mxCell>
        <mxCell id="UcPUY5OMpeZfR1J5Bzxe-7" value="" style="edgeStyle=none;orthogonalLoop=1;jettySize=auto;html=1;rounded=0;fontSize=12;startSize=8;endSize=8;curved=1;exitX=0;exitY=0;exitDx=0;exitDy=0;entryX=0.5;entryY=1;entryDx=0;entryDy=0;" edge="1" parent="1" source="UcPUY5OMpeZfR1J5Bzxe-2" target="UcPUY5OMpeZfR1J5Bzxe-3">
          <mxGeometry width="140" relative="1" as="geometry">
            <mxPoint x="69" y="82" as="sourcePoint" />
            <mxPoint x="-126" y="5" as="targetPoint" />
            <Array as="points" />
          </mxGeometry>
        </mxCell>
        <mxCell id="UcPUY5OMpeZfR1J5Bzxe-8" value="&lt;b&gt;Localizacion especifica&lt;/b&gt;" style="ellipse;whiteSpace=wrap;html=1;" vertex="1" parent="1">
          <mxGeometry x="-9" y="-60" width="106" height="58" as="geometry" />
        </mxCell>
        <mxCell id="UcPUY5OMpeZfR1J5Bzxe-9" value="" style="edgeStyle=none;orthogonalLoop=1;jettySize=auto;html=1;rounded=0;fontSize=12;startSize=8;endSize=8;curved=1;entryX=0.5;entryY=1;entryDx=0;entryDy=0;" edge="1" parent="1" source="UcPUY5OMpeZfR1J5Bzxe-2" target="UcPUY5OMpeZfR1J5Bzxe-8">
          <mxGeometry width="140" relative="1" as="geometry">
            <mxPoint x="69" y="82" as="sourcePoint" />
            <mxPoint x="209" y="82" as="targetPoint" />
            <Array as="points" />
          </mxGeometry>
        </mxCell>
        <mxCell id="UcPUY5OMpeZfR1J5Bzxe-10" value="&lt;b&gt;Jefe de organizacion&lt;/b&gt;" style="ellipse;whiteSpace=wrap;html=1;" vertex="1" parent="1">
          <mxGeometry x="202" y="26" width="106" height="58" as="geometry" />
        </mxCell>
        <mxCell id="UcPUY5OMpeZfR1J5Bzxe-11" value="" style="edgeStyle=none;orthogonalLoop=1;jettySize=auto;html=1;rounded=0;fontSize=12;startSize=8;endSize=8;curved=1;entryX=0.5;entryY=1;entryDx=0;entryDy=0;exitX=1;exitY=0;exitDx=0;exitDy=0;" edge="1" parent="1" source="UcPUY5OMpeZfR1J5Bzxe-2" target="UcPUY5OMpeZfR1J5Bzxe-10">
          <mxGeometry width="140" relative="1" as="geometry">
            <mxPoint x="69" y="82" as="sourcePoint" />
            <mxPoint x="209" y="82" as="targetPoint" />
            <Array as="points" />
          </mxGeometry>
        </mxCell>
        <mxCell id="UcPUY5OMpeZfR1J5Bzxe-12" value="&lt;b&gt;Área&amp;nbsp;total ocupada&lt;/b&gt;" style="ellipse;whiteSpace=wrap;html=1;" vertex="1" parent="1">
          <mxGeometry x="196" y="95" width="106" height="58" as="geometry" />
        </mxCell>
        <mxCell id="UcPUY5OMpeZfR1J5Bzxe-13" value="" style="edgeStyle=none;orthogonalLoop=1;jettySize=auto;html=1;rounded=0;fontSize=12;startSize=8;endSize=8;curved=1;entryX=0;entryY=0.5;entryDx=0;entryDy=0;exitX=1;exitY=0.5;exitDx=0;exitDy=0;" edge="1" parent="1" source="UcPUY5OMpeZfR1J5Bzxe-2" target="UcPUY5OMpeZfR1J5Bzxe-12">
          <mxGeometry width="140" relative="1" as="geometry">
            <mxPoint x="69" y="82" as="sourcePoint" />
            <mxPoint x="209" y="82" as="targetPoint" />
            <Array as="points" />
          </mxGeometry>
        </mxCell>
        <mxCell id="UcPUY5OMpeZfR1J5Bzxe-14" value="&lt;b&gt;Complejos polideportivos&lt;/b&gt;" style="rounded=0;whiteSpace=wrap;html=1;" vertex="1" parent="1">
          <mxGeometry x="514" y="89" width="160" height="80" as="geometry" />
        </mxCell>
        <mxCell id="UcPUY5OMpeZfR1J5Bzxe-15" value="&lt;b&gt;Deportes&lt;/b&gt;" style="ellipse;whiteSpace=wrap;html=1;" vertex="1" parent="1">
          <mxGeometry x="362" y="21" width="106" height="58" as="geometry" />
        </mxCell>
        <mxCell id="UcPUY5OMpeZfR1J5Bzxe-16" value="" style="edgeStyle=none;orthogonalLoop=1;jettySize=auto;html=1;rounded=0;fontSize=12;startSize=8;endSize=8;curved=1;exitX=0;exitY=0;exitDx=0;exitDy=0;entryX=0.5;entryY=1;entryDx=0;entryDy=0;" edge="1" parent="1" source="UcPUY5OMpeZfR1J5Bzxe-14" target="UcPUY5OMpeZfR1J5Bzxe-15">
          <mxGeometry width="140" relative="1" as="geometry">
            <mxPoint x="619" y="87" as="sourcePoint" />
            <mxPoint x="424" y="10" as="targetPoint" />
            <Array as="points" />
          </mxGeometry>
        </mxCell>
        <mxCell id="UcPUY5OMpeZfR1J5Bzxe-17" value="&lt;b&gt;Localizacion especifica&lt;/b&gt;" style="ellipse;whiteSpace=wrap;html=1;" vertex="1" parent="1">
          <mxGeometry x="541" y="-55" width="106" height="58" as="geometry" />
        </mxCell>
        <mxCell id="UcPUY5OMpeZfR1J5Bzxe-18" value="" style="edgeStyle=none;orthogonalLoop=1;jettySize=auto;html=1;rounded=0;fontSize=12;startSize=8;endSize=8;curved=1;entryX=0.5;entryY=1;entryDx=0;entryDy=0;" edge="1" parent="1" source="UcPUY5OMpeZfR1J5Bzxe-14" target="UcPUY5OMpeZfR1J5Bzxe-17">
          <mxGeometry width="140" relative="1" as="geometry">
            <mxPoint x="619" y="87" as="sourcePoint" />
            <mxPoint x="759" y="87" as="targetPoint" />
            <Array as="points" />
          </mxGeometry>
        </mxCell>
        <mxCell id="UcPUY5OMpeZfR1J5Bzxe-19" value="&lt;b&gt;Jefe de organizacion&lt;/b&gt;" style="ellipse;whiteSpace=wrap;html=1;" vertex="1" parent="1">
          <mxGeometry x="674" y="-50" width="106" height="58" as="geometry" />
        </mxCell>
        <mxCell id="UcPUY5OMpeZfR1J5Bzxe-20" value="" style="edgeStyle=none;orthogonalLoop=1;jettySize=auto;html=1;rounded=0;fontSize=12;startSize=8;endSize=8;curved=1;entryX=0.5;entryY=1;entryDx=0;entryDy=0;exitX=1;exitY=0;exitDx=0;exitDy=0;" edge="1" parent="1" source="UcPUY5OMpeZfR1J5Bzxe-14" target="UcPUY5OMpeZfR1J5Bzxe-19">
          <mxGeometry width="140" relative="1" as="geometry">
            <mxPoint x="619" y="87" as="sourcePoint" />
            <mxPoint x="759" y="87" as="targetPoint" />
            <Array as="points" />
          </mxGeometry>
        </mxCell>
        <mxCell id="UcPUY5OMpeZfR1J5Bzxe-21" value="&lt;b&gt;Área&amp;nbsp;total ocupada&lt;/b&gt;" style="ellipse;whiteSpace=wrap;html=1;" vertex="1" parent="1">
          <mxGeometry x="746" y="100" width="106" height="58" as="geometry" />
        </mxCell>
        <mxCell id="UcPUY5OMpeZfR1J5Bzxe-22" value="" style="edgeStyle=none;orthogonalLoop=1;jettySize=auto;html=1;rounded=0;fontSize=12;startSize=8;endSize=8;curved=1;entryX=0;entryY=0.5;entryDx=0;entryDy=0;exitX=1;exitY=0.5;exitDx=0;exitDy=0;" edge="1" parent="1" source="UcPUY5OMpeZfR1J5Bzxe-14" target="UcPUY5OMpeZfR1J5Bzxe-21">
          <mxGeometry width="140" relative="1" as="geometry">
            <mxPoint x="619" y="87" as="sourcePoint" />
            <mxPoint x="759" y="87" as="targetPoint" />
            <Array as="points" />
          </mxGeometry>
        </mxCell>
        <mxCell id="UcPUY5OMpeZfR1J5Bzxe-23" value="&lt;b&gt;Area designada&lt;/b&gt;" style="ellipse;whiteSpace=wrap;html=1;" vertex="1" parent="1">
          <mxGeometry x="674" y="234" width="106" height="58" as="geometry" />
        </mxCell>
        <mxCell id="UcPUY5OMpeZfR1J5Bzxe-24" value="" style="edgeStyle=none;orthogonalLoop=1;jettySize=auto;html=1;rounded=0;fontSize=12;startSize=8;endSize=8;curved=1;entryX=0.5;entryY=0;entryDx=0;entryDy=0;exitX=1;exitY=1;exitDx=0;exitDy=0;" edge="1" parent="1" source="UcPUY5OMpeZfR1J5Bzxe-14" target="UcPUY5OMpeZfR1J5Bzxe-23">
          <mxGeometry width="140" relative="1" as="geometry">
            <mxPoint x="676" y="175" as="sourcePoint" />
            <mxPoint x="668" y="125" as="targetPoint" />
            <Array as="points" />
          </mxGeometry>
        </mxCell>
        <mxCell id="UcPUY5OMpeZfR1J5Bzxe-25" value="&lt;b&gt;Indicador de localizacion&lt;/b&gt;" style="ellipse;whiteSpace=wrap;html=1;" vertex="1" parent="1">
          <mxGeometry x="541" y="238" width="106" height="58" as="geometry" />
        </mxCell>
        <mxCell id="UcPUY5OMpeZfR1J5Bzxe-26" value="" style="edgeStyle=none;orthogonalLoop=1;jettySize=auto;html=1;rounded=0;fontSize=12;startSize=8;endSize=8;curved=1;entryX=0.5;entryY=0;entryDx=0;entryDy=0;exitX=0.5;exitY=1;exitDx=0;exitDy=0;" edge="1" parent="1" source="UcPUY5OMpeZfR1J5Bzxe-14" target="UcPUY5OMpeZfR1J5Bzxe-25">
          <mxGeometry width="140" relative="1" as="geometry">
            <mxPoint x="512" y="161" as="sourcePoint" />
            <mxPoint x="652" y="161" as="targetPoint" />
            <Array as="points" />
          </mxGeometry>
        </mxCell>
        <mxCell id="UcPUY5OMpeZfR1J5Bzxe-27" value="&lt;b&gt;Info_Sede&lt;/b&gt;" style="rounded=0;whiteSpace=wrap;html=1;" vertex="1" parent="1">
          <mxGeometry x="447" y="328" width="160" height="80" as="geometry" />
        </mxCell>
        <mxCell id="UcPUY5OMpeZfR1J5Bzxe-28" value="&lt;b&gt;Numero de complejos&lt;/b&gt;" style="ellipse;whiteSpace=wrap;html=1;" vertex="1" parent="1">
          <mxGeometry x="341" y="434" width="106" height="58" as="geometry" />
        </mxCell>
        <mxCell id="UcPUY5OMpeZfR1J5Bzxe-29" value="&lt;b&gt;Presupuesto aproximado&lt;/b&gt;" style="ellipse;whiteSpace=wrap;html=1;" vertex="1" parent="1">
          <mxGeometry x="607" y="434" width="106" height="58" as="geometry" />
        </mxCell>
        <mxCell id="UcPUY5OMpeZfR1J5Bzxe-30" value="" style="edgeStyle=none;orthogonalLoop=1;jettySize=auto;html=1;rounded=0;fontSize=12;startSize=8;endSize=8;curved=1;entryX=0.5;entryY=0;entryDx=0;entryDy=0;exitX=1;exitY=1;exitDx=0;exitDy=0;" edge="1" parent="1" source="UcPUY5OMpeZfR1J5Bzxe-27" target="UcPUY5OMpeZfR1J5Bzxe-29">
          <mxGeometry width="140" relative="1" as="geometry">
            <mxPoint x="432" y="301" as="sourcePoint" />
            <mxPoint x="572" y="301" as="targetPoint" />
            <Array as="points" />
          </mxGeometry>
        </mxCell>
        <mxCell id="UcPUY5OMpeZfR1J5Bzxe-31" value="" style="edgeStyle=none;orthogonalLoop=1;jettySize=auto;html=1;rounded=0;fontSize=12;startSize=8;endSize=8;curved=1;entryX=0.5;entryY=0;entryDx=0;entryDy=0;exitX=0;exitY=1;exitDx=0;exitDy=0;" edge="1" parent="1" source="UcPUY5OMpeZfR1J5Bzxe-27" target="UcPUY5OMpeZfR1J5Bzxe-28">
          <mxGeometry width="140" relative="1" as="geometry">
            <mxPoint x="432" y="301" as="sourcePoint" />
            <mxPoint x="572" y="301" as="targetPoint" />
            <Array as="points" />
          </mxGeometry>
        </mxCell>
        <mxCell id="UcPUY5OMpeZfR1J5Bzxe-32" value="&lt;b&gt;Eventos&lt;/b&gt;" style="rounded=0;whiteSpace=wrap;html=1;" vertex="1" parent="1">
          <mxGeometry x="-98" y="373" width="160" height="80" as="geometry" />
        </mxCell>
        <mxCell id="UcPUY5OMpeZfR1J5Bzxe-33" value="&lt;b&gt;Fecha&lt;/b&gt;" style="ellipse;whiteSpace=wrap;html=1;" vertex="1" parent="1">
          <mxGeometry x="-204" y="485" width="106" height="58" as="geometry" />
        </mxCell>
        <mxCell id="UcPUY5OMpeZfR1J5Bzxe-34" value="&lt;b&gt;Duracion&lt;/b&gt;" style="ellipse;whiteSpace=wrap;html=1;" vertex="1" parent="1">
          <mxGeometry x="-71" y="485" width="106" height="58" as="geometry" />
        </mxCell>
        <mxCell id="UcPUY5OMpeZfR1J5Bzxe-35" value="&lt;b&gt;Numero participantes&lt;/b&gt;" style="ellipse;whiteSpace=wrap;html=1;" vertex="1" parent="1">
          <mxGeometry x="62" y="485" width="106" height="58" as="geometry" />
        </mxCell>
        <mxCell id="UcPUY5OMpeZfR1J5Bzxe-36" value="&lt;b&gt;&amp;nbsp;comisarios&lt;/b&gt;" style="ellipse;whiteSpace=wrap;html=1;" vertex="1" parent="1">
          <mxGeometry x="-181" y="272" width="106" height="58" as="geometry" />
        </mxCell>
        <mxCell id="UcPUY5OMpeZfR1J5Bzxe-37" value="" style="edgeStyle=none;orthogonalLoop=1;jettySize=auto;html=1;rounded=0;fontSize=12;startSize=8;endSize=8;curved=1;entryX=0.5;entryY=0;entryDx=0;entryDy=0;exitX=1;exitY=1;exitDx=0;exitDy=0;" edge="1" parent="1" source="UcPUY5OMpeZfR1J5Bzxe-32" target="UcPUY5OMpeZfR1J5Bzxe-35">
          <mxGeometry width="140" relative="1" as="geometry">
            <mxPoint x="-49" y="595" as="sourcePoint" />
            <mxPoint x="91" y="595" as="targetPoint" />
            <Array as="points" />
          </mxGeometry>
        </mxCell>
        <mxCell id="UcPUY5OMpeZfR1J5Bzxe-38" value="" style="edgeStyle=none;orthogonalLoop=1;jettySize=auto;html=1;rounded=0;fontSize=12;startSize=8;endSize=8;curved=1;entryX=0.5;entryY=0;entryDx=0;entryDy=0;exitX=0.5;exitY=1;exitDx=0;exitDy=0;" edge="1" parent="1" source="UcPUY5OMpeZfR1J5Bzxe-32" target="UcPUY5OMpeZfR1J5Bzxe-34">
          <mxGeometry width="140" relative="1" as="geometry">
            <mxPoint x="-49" y="595" as="sourcePoint" />
            <mxPoint x="91" y="595" as="targetPoint" />
            <Array as="points" />
          </mxGeometry>
        </mxCell>
        <mxCell id="UcPUY5OMpeZfR1J5Bzxe-40" value="" style="edgeStyle=none;orthogonalLoop=1;jettySize=auto;html=1;rounded=0;fontSize=12;startSize=8;endSize=8;curved=1;entryX=0.5;entryY=1;entryDx=0;entryDy=0;" edge="1" parent="1" source="UcPUY5OMpeZfR1J5Bzxe-32" target="UcPUY5OMpeZfR1J5Bzxe-36">
          <mxGeometry width="140" relative="1" as="geometry">
            <mxPoint x="-49" y="595" as="sourcePoint" />
            <mxPoint x="91" y="595" as="targetPoint" />
            <Array as="points" />
          </mxGeometry>
        </mxCell>
        <mxCell id="UcPUY5OMpeZfR1J5Bzxe-41" value="" style="edgeStyle=none;orthogonalLoop=1;jettySize=auto;html=1;rounded=0;fontSize=12;startSize=8;endSize=8;curved=1;entryX=0.5;entryY=0;entryDx=0;entryDy=0;exitX=0;exitY=1;exitDx=0;exitDy=0;" edge="1" parent="1" source="UcPUY5OMpeZfR1J5Bzxe-32" target="UcPUY5OMpeZfR1J5Bzxe-33">
          <mxGeometry width="140" relative="1" as="geometry">
            <mxPoint x="-49" y="595" as="sourcePoint" />
            <mxPoint x="91" y="595" as="targetPoint" />
            <Array as="points" />
          </mxGeometry>
        </mxCell>
        <mxCell id="UcPUY5OMpeZfR1J5Bzxe-42" value="&lt;b&gt;Equipo necesario&lt;/b&gt;" style="rounded=0;whiteSpace=wrap;html=1;" vertex="1" parent="1">
          <mxGeometry x="-421" y="410" width="160" height="80" as="geometry" />
        </mxCell>
        <mxCell id="UcPUY5OMpeZfR1J5Bzxe-43" value="&lt;b&gt;Cantidad&lt;/b&gt;" style="ellipse;whiteSpace=wrap;html=1;" vertex="1" parent="1">
          <mxGeometry x="-389" y="535" width="106" height="58" as="geometry" />
        </mxCell>
        <mxCell id="UcPUY5OMpeZfR1J5Bzxe-45" value="&lt;b&gt;Info_Equipo&lt;/b&gt;&lt;div&gt;&lt;b&gt;Deportivo&lt;/b&gt;&lt;/div&gt;" style="ellipse;whiteSpace=wrap;html=1;" vertex="1" parent="1">
          <mxGeometry x="-524" y="535" width="108" height="60" as="geometry" />
        </mxCell>
        <mxCell id="UcPUY5OMpeZfR1J5Bzxe-46" value="&lt;b&gt;Complejo&lt;/b&gt;" style="ellipse;whiteSpace=wrap;html=1;" vertex="1" parent="1">
          <mxGeometry x="-389" y="305" width="106" height="58" as="geometry" />
        </mxCell>
        <mxCell id="UcPUY5OMpeZfR1J5Bzxe-48" value="" style="edgeStyle=none;orthogonalLoop=1;jettySize=auto;html=1;rounded=0;fontSize=12;startSize=8;endSize=8;curved=1;entryX=0.5;entryY=1;entryDx=0;entryDy=0;exitX=0.5;exitY=0;exitDx=0;exitDy=0;" edge="1" parent="1" source="UcPUY5OMpeZfR1J5Bzxe-42" target="UcPUY5OMpeZfR1J5Bzxe-46">
          <mxGeometry width="140" relative="1" as="geometry">
            <mxPoint x="-405" y="412" as="sourcePoint" />
            <mxPoint x="-265" y="412" as="targetPoint" />
            <Array as="points" />
          </mxGeometry>
        </mxCell>
        <mxCell id="UcPUY5OMpeZfR1J5Bzxe-49" value="" style="edgeStyle=none;orthogonalLoop=1;jettySize=auto;html=1;rounded=0;fontSize=12;startSize=8;endSize=8;curved=1;entryX=0.5;entryY=0;entryDx=0;entryDy=0;exitX=0;exitY=1;exitDx=0;exitDy=0;" edge="1" parent="1" source="UcPUY5OMpeZfR1J5Bzxe-42" target="UcPUY5OMpeZfR1J5Bzxe-45">
          <mxGeometry width="140" relative="1" as="geometry">
            <mxPoint x="-405" y="412" as="sourcePoint" />
            <mxPoint x="-265" y="412" as="targetPoint" />
            <Array as="points" />
          </mxGeometry>
        </mxCell>
        <mxCell id="UcPUY5OMpeZfR1J5Bzxe-50" value="" style="edgeStyle=none;orthogonalLoop=1;jettySize=auto;html=1;rounded=0;fontSize=12;startSize=8;endSize=8;curved=1;entryX=0.5;entryY=0;entryDx=0;entryDy=0;exitX=0.5;exitY=1;exitDx=0;exitDy=0;" edge="1" parent="1" source="UcPUY5OMpeZfR1J5Bzxe-42" target="UcPUY5OMpeZfR1J5Bzxe-43">
          <mxGeometry width="140" relative="1" as="geometry">
            <mxPoint x="-405" y="412" as="sourcePoint" />
            <mxPoint x="-265" y="412" as="targetPoint" />
            <Array as="points" />
          </mxGeometry>
        </mxCell>
        <mxCell id="UcPUY5OMpeZfR1J5Bzxe-52" value="&lt;b&gt;complejo (deportivo o polideportivo)&lt;/b&gt;" style="ellipse;whiteSpace=wrap;html=1;" vertex="1" parent="1">
          <mxGeometry x="-48" y="272" width="121" height="69" as="geometry" />
        </mxCell>
        <mxCell id="UcPUY5OMpeZfR1J5Bzxe-53" value="" style="edgeStyle=none;orthogonalLoop=1;jettySize=auto;html=1;rounded=0;fontSize=12;startSize=8;endSize=8;curved=1;entryX=0.5;entryY=1;entryDx=0;entryDy=0;exitX=1;exitY=0;exitDx=0;exitDy=0;" edge="1" parent="1" source="UcPUY5OMpeZfR1J5Bzxe-32" target="UcPUY5OMpeZfR1J5Bzxe-52">
          <mxGeometry width="140" relative="1" as="geometry">
            <mxPoint x="-108" y="353" as="sourcePoint" />
            <mxPoint x="32" y="353" as="targetPoint" />
            <Array as="points" />
          </mxGeometry>
        </mxCell>
        <mxCell id="UcPUY5OMpeZfR1J5Bzxe-54" value="&lt;b&gt;Eventos&lt;/b&gt;" style="ellipse;whiteSpace=wrap;html=1;" vertex="1" parent="1">
          <mxGeometry x="-208" y="26" width="106" height="58" as="geometry" />
        </mxCell>
        <mxCell id="UcPUY5OMpeZfR1J5Bzxe-55" value="" style="edgeStyle=none;orthogonalLoop=1;jettySize=auto;html=1;rounded=0;fontSize=12;startSize=8;endSize=8;curved=1;entryX=1;entryY=0.5;entryDx=0;entryDy=0;exitX=0;exitY=0.5;exitDx=0;exitDy=0;" edge="1" parent="1" source="UcPUY5OMpeZfR1J5Bzxe-2" target="UcPUY5OMpeZfR1J5Bzxe-54">
          <mxGeometry width="140" relative="1" as="geometry">
            <mxPoint x="-122" y="224" as="sourcePoint" />
            <mxPoint x="-75.00000000000409" y="123.99999999999977" as="targetPoint" />
            <Array as="points" />
          </mxGeometry>
        </mxCell>
        <mxCell id="UcPUY5OMpeZfR1J5Bzxe-56" value="&lt;b&gt;Eventos&lt;/b&gt;" style="ellipse;whiteSpace=wrap;html=1;" vertex="1" parent="1">
          <mxGeometry x="362" y="95" width="106" height="58" as="geometry" />
        </mxCell>
        <mxCell id="UcPUY5OMpeZfR1J5Bzxe-57" value="" style="edgeStyle=none;orthogonalLoop=1;jettySize=auto;html=1;rounded=0;fontSize=12;startSize=8;endSize=8;curved=1;entryX=1;entryY=0.5;entryDx=0;entryDy=0;exitX=-0.01;exitY=0.435;exitDx=0;exitDy=0;exitPerimeter=0;" edge="1" parent="1" source="UcPUY5OMpeZfR1J5Bzxe-14" target="UcPUY5OMpeZfR1J5Bzxe-56">
          <mxGeometry width="140" relative="1" as="geometry">
            <mxPoint x="307" y="201" as="sourcePoint" />
            <mxPoint x="447" y="201" as="targetPoint" />
            <Array as="points" />
          </mxGeometry>
        </mxCell>
        <mxCell id="UcPUY5OMpeZfR1J5Bzxe-58" value="&lt;b&gt;Jefe de&amp;nbsp;organización&lt;/b&gt;" style="rounded=0;whiteSpace=wrap;html=1;" vertex="1" parent="1">
          <mxGeometry x="269" y="-99" width="118" height="61" as="geometry" />
        </mxCell>
        <mxCell id="UcPUY5OMpeZfR1J5Bzxe-59" value="&lt;b&gt;Nombre&lt;/b&gt;" style="ellipse;whiteSpace=wrap;html=1;" vertex="1" parent="1">
          <mxGeometry x="419" y="-200" width="106" height="58" as="geometry" />
        </mxCell>
        <mxCell id="UcPUY5OMpeZfR1J5Bzxe-60" value="&lt;b&gt;Id_jefe organizacion&lt;/b&gt;" style="ellipse;whiteSpace=wrap;html=1;" vertex="1" parent="1">
          <mxGeometry x="273" y="-200" width="106" height="58" as="geometry" />
        </mxCell>
        <mxCell id="UcPUY5OMpeZfR1J5Bzxe-61" value="" style="edgeStyle=none;orthogonalLoop=1;jettySize=auto;html=1;rounded=0;fontSize=12;startSize=8;endSize=8;curved=1;entryX=0.5;entryY=1;entryDx=0;entryDy=0;exitX=1;exitY=0;exitDx=0;exitDy=0;" edge="1" parent="1" source="UcPUY5OMpeZfR1J5Bzxe-58" target="UcPUY5OMpeZfR1J5Bzxe-59">
          <mxGeometry width="140" relative="1" as="geometry">
            <mxPoint x="231" y="223" as="sourcePoint" />
            <mxPoint x="371" y="223" as="targetPoint" />
            <Array as="points" />
          </mxGeometry>
        </mxCell>
        <mxCell id="UcPUY5OMpeZfR1J5Bzxe-62" value="" style="edgeStyle=none;orthogonalLoop=1;jettySize=auto;html=1;rounded=0;fontSize=12;startSize=8;endSize=8;curved=1;entryX=0.5;entryY=1;entryDx=0;entryDy=0;exitX=0.5;exitY=0;exitDx=0;exitDy=0;" edge="1" parent="1" source="UcPUY5OMpeZfR1J5Bzxe-58" target="UcPUY5OMpeZfR1J5Bzxe-60">
          <mxGeometry width="140" relative="1" as="geometry">
            <mxPoint x="231" y="223" as="sourcePoint" />
            <mxPoint x="371" y="223" as="targetPoint" />
            <Array as="points" />
          </mxGeometry>
        </mxCell>
        <mxCell id="UcPUY5OMpeZfR1J5Bzxe-63" value="&lt;b&gt;Comisarios&lt;/b&gt;" style="rounded=0;whiteSpace=wrap;html=1;" vertex="1" parent="1">
          <mxGeometry x="-400" y="207" width="118" height="61" as="geometry" />
        </mxCell>
        <mxCell id="UcPUY5OMpeZfR1J5Bzxe-64" value="&lt;b&gt;Nombre&lt;/b&gt;" style="ellipse;whiteSpace=wrap;html=1;" vertex="1" parent="1">
          <mxGeometry x="-250" y="106" width="106" height="58" as="geometry" />
        </mxCell>
        <mxCell id="UcPUY5OMpeZfR1J5Bzxe-65" value="&lt;b&gt;Id_de comisario&lt;/b&gt;" style="ellipse;whiteSpace=wrap;html=1;" vertex="1" parent="1">
          <mxGeometry x="-396" y="106" width="106" height="58" as="geometry" />
        </mxCell>
        <mxCell id="UcPUY5OMpeZfR1J5Bzxe-66" value="" style="edgeStyle=none;orthogonalLoop=1;jettySize=auto;html=1;rounded=0;fontSize=12;startSize=8;endSize=8;curved=1;entryX=0.5;entryY=1;entryDx=0;entryDy=0;exitX=1;exitY=0;exitDx=0;exitDy=0;" edge="1" parent="1" source="UcPUY5OMpeZfR1J5Bzxe-63" target="UcPUY5OMpeZfR1J5Bzxe-64">
          <mxGeometry width="140" relative="1" as="geometry">
            <mxPoint x="-438" y="529" as="sourcePoint" />
            <mxPoint x="-298" y="529" as="targetPoint" />
            <Array as="points" />
          </mxGeometry>
        </mxCell>
        <mxCell id="UcPUY5OMpeZfR1J5Bzxe-67" value="" style="edgeStyle=none;orthogonalLoop=1;jettySize=auto;html=1;rounded=0;fontSize=12;startSize=8;endSize=8;curved=1;entryX=0.5;entryY=1;entryDx=0;entryDy=0;exitX=0.5;exitY=0;exitDx=0;exitDy=0;" edge="1" parent="1" source="UcPUY5OMpeZfR1J5Bzxe-63" target="UcPUY5OMpeZfR1J5Bzxe-65">
          <mxGeometry width="140" relative="1" as="geometry">
            <mxPoint x="-438" y="529" as="sourcePoint" />
            <mxPoint x="-298" y="529" as="targetPoint" />
            <Array as="points" />
          </mxGeometry>
        </mxCell>
        <mxCell id="UcPUY5OMpeZfR1J5Bzxe-68" value="&lt;b&gt;Equipo&amp;nbsp;necesario&lt;/b&gt;" style="ellipse;whiteSpace=wrap;html=1;" vertex="1" parent="1">
          <mxGeometry x="114" y="384" width="106" height="58" as="geometry" />
        </mxCell>
        <mxCell id="UcPUY5OMpeZfR1J5Bzxe-69" value="" style="edgeStyle=none;orthogonalLoop=1;jettySize=auto;html=1;rounded=0;fontSize=12;startSize=8;endSize=8;curved=1;entryX=0;entryY=0.5;entryDx=0;entryDy=0;exitX=1;exitY=0.5;exitDx=0;exitDy=0;" edge="1" parent="1" source="UcPUY5OMpeZfR1J5Bzxe-32" target="UcPUY5OMpeZfR1J5Bzxe-68">
          <mxGeometry width="140" relative="1" as="geometry">
            <mxPoint x="-151" y="417" as="sourcePoint" />
            <mxPoint x="-11" y="417" as="targetPoint" />
            <Array as="points" />
          </mxGeometry>
        </mxCell>
        <mxCell id="UcPUY5OMpeZfR1J5Bzxe-87" value="" style="endArrow=none;html=1;rounded=0;entryX=-0.004;entryY=0.117;entryDx=0;entryDy=0;exitX=1;exitY=0.25;exitDx=0;exitDy=0;entryPerimeter=0;" edge="1" parent="1" source="UcPUY5OMpeZfR1J5Bzxe-88" target="UcPUY5OMpeZfR1J5Bzxe-32">
          <mxGeometry width="50" height="50" relative="1" as="geometry">
            <mxPoint x="-200" y="475" as="sourcePoint" />
            <mxPoint x="-150" y="425" as="targetPoint" />
          </mxGeometry>
        </mxCell>
        <mxCell id="UcPUY5OMpeZfR1J5Bzxe-91" value="Complejo deportivo o polideportivo" style="rhombus;whiteSpace=wrap;html=1;" vertex="1" parent="1">
          <mxGeometry x="213" y="231" width="149" height="124" as="geometry" />
        </mxCell>
        <mxCell id="UcPUY5OMpeZfR1J5Bzxe-92" value="" style="endArrow=classic;html=1;rounded=0;entryX=0.5;entryY=1;entryDx=0;entryDy=0;exitX=1;exitY=0;exitDx=0;exitDy=0;" edge="1" parent="1" source="UcPUY5OMpeZfR1J5Bzxe-32" target="UcPUY5OMpeZfR1J5Bzxe-91">
          <mxGeometry width="50" height="50" relative="1" as="geometry">
            <mxPoint x="197" y="288" as="sourcePoint" />
            <mxPoint x="247" y="238" as="targetPoint" />
          </mxGeometry>
        </mxCell>
        <mxCell id="UcPUY5OMpeZfR1J5Bzxe-93" value="" style="endArrow=classic;html=1;rounded=0;entryX=0;entryY=1;entryDx=0;entryDy=0;exitX=1;exitY=0.5;exitDx=0;exitDy=0;" edge="1" parent="1" source="UcPUY5OMpeZfR1J5Bzxe-91" target="UcPUY5OMpeZfR1J5Bzxe-14">
          <mxGeometry width="50" height="50" relative="1" as="geometry">
            <mxPoint x="360" y="233" as="sourcePoint" />
            <mxPoint x="410" y="183" as="targetPoint" />
          </mxGeometry>
        </mxCell>
        <mxCell id="UcPUY5OMpeZfR1J5Bzxe-94" value="" style="endArrow=classic;html=1;rounded=0;entryX=1;entryY=1;entryDx=0;entryDy=0;exitX=0;exitY=0.5;exitDx=0;exitDy=0;" edge="1" parent="1" source="UcPUY5OMpeZfR1J5Bzxe-91" target="UcPUY5OMpeZfR1J5Bzxe-2">
          <mxGeometry width="50" height="50" relative="1" as="geometry">
            <mxPoint x="92" y="117" as="sourcePoint" />
            <mxPoint x="142" y="67" as="targetPoint" />
          </mxGeometry>
        </mxCell>
        <mxCell id="UcPUY5OMpeZfR1J5Bzxe-95" value="" style="endArrow=none;html=1;rounded=0;entryX=0;entryY=0;entryDx=0;entryDy=0;exitX=1;exitY=1;exitDx=0;exitDy=0;" edge="1" parent="1" source="UcPUY5OMpeZfR1J5Bzxe-63" target="UcPUY5OMpeZfR1J5Bzxe-32">
          <mxGeometry width="50" height="50" relative="1" as="geometry">
            <mxPoint x="-257" y="313" as="sourcePoint" />
            <mxPoint x="-207" y="263" as="targetPoint" />
          </mxGeometry>
        </mxCell>
        <mxCell id="UcPUY5OMpeZfR1J5Bzxe-96" value="M:1" style="text;html=1;align=center;verticalAlign=middle;whiteSpace=wrap;rounded=0;rotation=30;" vertex="1" parent="1">
          <mxGeometry x="-237" y="305" width="33" height="23" as="geometry" />
        </mxCell>
        <mxCell id="UcPUY5OMpeZfR1J5Bzxe-97" value="" style="endArrow=none;html=1;rounded=0;exitX=0.75;exitY=0;exitDx=0;exitDy=0;entryX=0;entryY=1;entryDx=0;entryDy=0;" edge="1" parent="1" source="UcPUY5OMpeZfR1J5Bzxe-2" target="UcPUY5OMpeZfR1J5Bzxe-58">
          <mxGeometry width="50" height="50" relative="1" as="geometry">
            <mxPoint x="92" y="29" as="sourcePoint" />
            <mxPoint x="142" y="-21" as="targetPoint" />
          </mxGeometry>
        </mxCell>
        <mxCell id="UcPUY5OMpeZfR1J5Bzxe-98" value="" style="endArrow=none;html=1;rounded=0;exitX=0.16;exitY=-0.035;exitDx=0;exitDy=0;entryX=1;entryY=1;entryDx=0;entryDy=0;exitPerimeter=0;" edge="1" parent="1" source="UcPUY5OMpeZfR1J5Bzxe-14" target="UcPUY5OMpeZfR1J5Bzxe-58">
          <mxGeometry width="50" height="50" relative="1" as="geometry">
            <mxPoint x="94" y="94" as="sourcePoint" />
            <mxPoint x="276" y="-145" as="targetPoint" />
          </mxGeometry>
        </mxCell>
        <mxCell id="UcPUY5OMpeZfR1J5Bzxe-99" value="1:1" style="text;html=1;align=center;verticalAlign=middle;whiteSpace=wrap;rounded=0;rotation=60;" vertex="1" parent="1">
          <mxGeometry x="455" y="-11" width="34" height="23" as="geometry" />
        </mxCell>
        <mxCell id="UcPUY5OMpeZfR1J5Bzxe-100" value="1:1" style="text;html=1;align=center;verticalAlign=middle;whiteSpace=wrap;rounded=0;rotation=-48;" vertex="1" parent="1">
          <mxGeometry x="171" y="-25" width="34" height="23" as="geometry" />
        </mxCell>
        <mxCell id="UcPUY5OMpeZfR1J5Bzxe-101" value="" style="endArrow=none;html=1;rounded=0;entryX=-0.004;entryY=0.117;entryDx=0;entryDy=0;exitX=1;exitY=0;exitDx=0;exitDy=0;entryPerimeter=0;" edge="1" parent="1" source="UcPUY5OMpeZfR1J5Bzxe-42" target="UcPUY5OMpeZfR1J5Bzxe-88">
          <mxGeometry width="50" height="50" relative="1" as="geometry">
            <mxPoint x="-279" y="492" as="sourcePoint" />
            <mxPoint x="-99" y="382" as="targetPoint" />
            <Array as="points" />
          </mxGeometry>
        </mxCell>
        <mxCell id="UcPUY5OMpeZfR1J5Bzxe-88" value="M:1" style="text;html=1;align=center;verticalAlign=middle;whiteSpace=wrap;rounded=0;rotation=-45;" vertex="1" parent="1">
          <mxGeometry x="-214" y="373" width="33" height="23" as="geometry" />
        </mxCell>
      </root>
    </mxGraphModel>
  </diagram>
</mxfile>
